<?xml version="1.0" encoding="utf-8"?>
<!-- Generator: Adobe Illustrator 28.3.0, SVG Export Plug-In . SVG Version: 6.00 Build 0)  -->
<svg version="1.1" xmlns="http://www.w3.org/2000/svg" xmlns:xlink="http://www.w3.org/1999/xlink" x="0px" y="0px"
	 viewBox="0 0 100 100" style="enable-background:new 0 0 100 100;" xml:space="preserve">
<style type="text/css">
	.st0{fill:#A17800;}
	.st1{fill:url(#SVGID_1_);}
	.st2{fill:none;stroke:#000000;stroke-width:1.1017;stroke-miterlimit:10;}
	.st3{fill:none;stroke:#B08D3B;stroke-width:3.6505;stroke-linecap:round;stroke-miterlimit:10;}
</style>
<g id="Layer_1">
</g>
<g id="Layer_2">
	<g>
		<path class="st0" d="M60,39.6v33.7c0,0.7-0.6,1.3-1.3,1.3H41.3c-0.7,0-1.3-0.6-1.3-1.3V39.6c0-0.3,0.1-0.5,0.2-0.7l8.7-13
			c0.5-0.8,1.7-0.8,2.2,0l8.7,13C59.9,39.1,60,39.4,60,39.6z"/>
	</g>
	<g>
		
			<linearGradient id="SVGID_1_" gradientUnits="userSpaceOnUse" x1="57.8086" y1="43.5014" x2="67.6875" y2="56.1458" gradientTransform="matrix(4.489659e-11 -1 1 4.489659e-11 -0.7893 99.2107)">
			<stop  offset="0" style="stop-color:#A17800"/>
			<stop  offset="0.1719" style="stop-color:#9D7500"/>
			<stop  offset="0.3523" style="stop-color:#906B00"/>
			<stop  offset="0.5367" style="stop-color:#7B5C00"/>
			<stop  offset="0.7239" style="stop-color:#5E4500"/>
			<stop  offset="0.9114" style="stop-color:#382900"/>
			<stop  offset="0.9995" style="stop-color:#241A00"/>
		</linearGradient>
		<path class="st1" d="M51.2,26.3l7.8,13H41l7.8-13C49.3,25.3,50.7,25.3,51.2,26.3z"/>
	</g>
	<g>
		<path d="M50,26.3c0.1,0,0.2,0,0.3,0.2l8.7,13c0,0.1,0.1,0.1,0.1,0.2v33.7c0,0.2-0.2,0.3-0.3,0.3H41.3c-0.2,0-0.3-0.2-0.3-0.3V39.6
			c0-0.1,0-0.1,0.1-0.2l8.7-13C49.8,26.3,49.9,26.3,50,26.3 M50,25.3c-0.4,0-0.9,0.2-1.1,0.6l-8.7,13c-0.1,0.2-0.2,0.5-0.2,0.7v33.7
			c0,0.7,0.6,1.3,1.3,1.3h17.3c0.7,0,1.3-0.6,1.3-1.3V39.6c0-0.3-0.1-0.5-0.2-0.7l-8.7-13C50.9,25.5,50.4,25.3,50,25.3L50,25.3z"/>
	</g>
	<g>
		<line class="st2" x1="41" y1="39.7" x2="59" y2="39.7"/>
	</g>
	<path class="st3" d="M45.9,47v22c0,0.2-0.2,0.4-0.4,0.4l0,0c-0.2,0-0.4-0.2-0.4-0.4V47c0-0.2,0.2-0.4,0.4-0.4l0,0
		C45.7,46.6,45.9,46.8,45.9,47z"/>
</g>
</svg>
