<?xml version="1.0" encoding="utf-8"?>
<!-- Generator: Adobe Illustrator 28.3.0, SVG Export Plug-In . SVG Version: 6.00 Build 0)  -->
<svg version="1.1" id="Layer_1" xmlns="http://www.w3.org/2000/svg" xmlns:xlink="http://www.w3.org/1999/xlink" x="0px" y="0px"
	 viewBox="0 0 100 100" style="enable-background:new 0 0 100 100;" xml:space="preserve">
<style type="text/css">
	.st0{fill:#A17800;}
	.st1{fill:url(#SVGID_1_);}
	.st2{fill:none;stroke:#000000;stroke-width:1.1017;stroke-miterlimit:10;}
	.st3{fill:none;stroke:#B08D3B;stroke-width:3.6505;stroke-linecap:round;stroke-miterlimit:10;}
</style>
<g id="Layer_1_00000074415995376551008910000004254056805105379494_">
</g>
<g id="Layer_2_00000013912886874522904830000017193749428466121378_">
	<g>
		<path class="st0" d="M60.4,59.9H26.7c-0.7,0-1.3-0.6-1.3-1.3V41.2c0-0.7,0.6-1.3,1.3-1.3h33.7c0.3,0,0.5,0.1,0.7,0.2l13,8.7
			c0.8,0.5,0.8,1.7,0,2.2l-13,8.7C60.9,59.8,60.6,59.9,60.4,59.9z"/>
	</g>
	<g>
		
			<linearGradient id="SVGID_1_" gradientUnits="userSpaceOnUse" x1="57.776" y1="56.4731" x2="67.6549" y2="43.8287" gradientTransform="matrix(1 0 0 -1 0.7553 99.1447)">
			<stop  offset="0" style="stop-color:#A17800"/>
			<stop  offset="0.1719" style="stop-color:#9D7500"/>
			<stop  offset="0.3523" style="stop-color:#906B00"/>
			<stop  offset="0.5367" style="stop-color:#7B5C00"/>
			<stop  offset="0.7239" style="stop-color:#5E4500"/>
			<stop  offset="0.9114" style="stop-color:#382900"/>
			<stop  offset="0.9995" style="stop-color:#241A00"/>
		</linearGradient>
		<path class="st1" d="M73.7,51.1l-13,7.8v-18l13,7.8C74.7,49.2,74.7,50.6,73.7,51.1z"/>
	</g>
	<g>
		<path d="M73.6,50.2l-13.1,8.8c-0.1,0-0.1,0.1-0.2,0.1H26.6c-0.2,0-0.3-0.2-0.3-0.3V41.2c0-0.2,0.2-0.3,0.3-0.3h33.8
			c0.1,0,0.1,0,0.2,0.1l13,8.7c0,0,0.2,0.1,0.2,0.2C73.7,50.2,73.6,50.2,73.6,50.2z M74.7,49.9c0-0.4-0.2-0.9-0.6-1.1l-13-8.7
			c-0.2-0.1-0.5-0.2-0.7-0.2H26.7c-0.7,0-1.3,0.6-1.3,1.3v17.4c0,0.7,0.6,1.3,1.3,1.3h33.7c0.3,0,0.5-0.1,0.7-0.2l13.2-8.8
			C74.6,50.6,74.7,50.3,74.7,49.9L74.7,49.9z"/>
	</g>
	<g>
		<line class="st2" x1="60.3" y1="40.9" x2="60.3" y2="59.2"/>
	</g>
	<path class="st3" d="M53,45.8H31c-0.2,0-0.4-0.2-0.4-0.4l0,0c0-0.2,0.2-0.4,0.4-0.4h22c0.2,0,0.4,0.2,0.4,0.4l0,0
		C53.4,45.6,53.2,45.8,53,45.8z"/>
</g>
</svg>
