<?xml version="1.0" encoding="utf-8"?>
<!-- Generator: Adobe Illustrator 28.3.0, SVG Export Plug-In . SVG Version: 6.00 Build 0)  -->
<svg version="1.1" id="Layer_1" xmlns="http://www.w3.org/2000/svg" xmlns:xlink="http://www.w3.org/1999/xlink" x="0px" y="0px"
	 viewBox="0 0 100 100" style="enable-background:new 0 0 100 100;" xml:space="preserve">
<style type="text/css">
	.st0{display:none;}
	.st1{display:inline;}
	.st2{fill:#A17800;}
	.st3{fill:#735600;}
	.st4{fill:none;stroke:#000000;stroke-width:1.1017;stroke-miterlimit:10;}
	.st5{fill:none;stroke:#B08D3B;stroke-width:3.6505;stroke-linecap:round;stroke-miterlimit:10;}
	.st6{fill:url(#SVGID_1_);stroke:#000000;stroke-miterlimit:10;}
	.st7{fill:url(#SVGID_00000090273680039709821860000011314245074997791935_);stroke:#000000;stroke-miterlimit:10;}
	.st8{fill:url(#SVGID_00000076575988378829553060000010005298423932396931_);stroke:#000000;stroke-miterlimit:10;}
	.st9{fill:url(#SVGID_00000071522716836428595930000007872933359624505499_);stroke:#000000;stroke-miterlimit:10;}
	.st10{fill:url(#SVGID_00000034810488558332344940000009726476604398648490_);stroke:#000000;stroke-miterlimit:10;}
	.st11{fill:url(#SVGID_00000026885342229516159030000015350700941613222579_);stroke:#000000;stroke-miterlimit:10;}
</style>
<g id="Layer_1_00000163761962566361928200000015491323634352350610_">
</g>
<g id="Layer_2_00000163070566975868215290000010072508589281760938_" class="st0">
	<g class="st1">
		<g>
			<path class="st2" d="M60,40.1v34c0,0.6-0.5,1.1-1.1,1.1H41.1c-0.6,0-1.1-0.5-1.1-1.1v-34c0-0.3,0.1-0.5,0.2-0.7L50,24.8l9.8,14.7
				C59.9,39.6,60,39.9,60,40.1z"/>
		</g>
		<g>
			<polygon class="st3" points="50,26.8 59,39.8 41,39.8 			"/>
		</g>
		<g>
			<path d="M50,26.6L58.9,40c0,0.1,0.1,0.1,0.1,0.2v34c0,0.1,0,0.1-0.1,0.1H41.1c-0.1,0-0.1,0-0.1-0.1v-34c0-0.1,0-0.1,0.1-0.2
				L50,26.6 M50,24.8l-9.8,14.7C40.1,39.7,40,40,40,40.2v34c0,0.6,0.5,1.1,1.1,1.1h17.8c0.6,0,1.1-0.5,1.1-1.1v-34
				c0-0.3-0.1-0.5-0.2-0.7L50,24.8L50,24.8z"/>
		</g>
		<g>
			<line class="st4" x1="41" y1="40.2" x2="59" y2="40.2"/>
		</g>
		<path class="st5" d="M45.9,47.6v22c0,0.2-0.2,0.4-0.4,0.4l0,0c-0.2,0-0.4-0.2-0.4-0.4v-22c0-0.2,0.2-0.4,0.4-0.4l0,0
			C45.7,47.1,45.9,47.3,45.9,47.6z"/>
	</g>
</g>
<g id="Source" class="st0">
	<g class="st1">
		
			<linearGradient id="SVGID_1_" gradientUnits="userSpaceOnUse" x1="59.8852" y1="37" x2="40.0688" y2="37" gradientTransform="matrix(1 0 0 -1 0 100)">
			<stop  offset="0" style="stop-color:#A17800"/>
			<stop  offset="9.901221e-02" style="stop-color:#9D7500"/>
			<stop  offset="0.2016" style="stop-color:#906C00"/>
			<stop  offset="0.3059" style="stop-color:#7C5C00"/>
			<stop  offset="0.4106" style="stop-color:#5F4700"/>
			<stop  offset="0.5" style="stop-color:#403000"/>
			<stop  offset="0.5894" style="stop-color:#5F4700"/>
			<stop  offset="0.6941" style="stop-color:#7C5C00"/>
			<stop  offset="0.7984" style="stop-color:#906C00"/>
			<stop  offset="0.901" style="stop-color:#9D7500"/>
			<stop  offset="1" style="stop-color:#A17800"/>
		</linearGradient>
		<rect x="39.5" y="55.5" class="st6" width="21" height="15"/>
		
			<linearGradient id="SVGID_00000031187816051636313550000003086738316269666734_" gradientUnits="userSpaceOnUse" x1="39.5" y1="26" x2="60.5" y2="26" gradientTransform="matrix(1 0 0 -1 0 100)">
			<stop  offset="0" style="stop-color:#A17800"/>
			<stop  offset="9.901221e-02" style="stop-color:#9D7500"/>
			<stop  offset="0.2016" style="stop-color:#906C00"/>
			<stop  offset="0.3059" style="stop-color:#7C5C00"/>
			<stop  offset="0.4106" style="stop-color:#5F4700"/>
			<stop  offset="0.5" style="stop-color:#403000"/>
			<stop  offset="0.5894" style="stop-color:#5F4700"/>
			<stop  offset="0.6941" style="stop-color:#7C5C00"/>
			<stop  offset="0.7984" style="stop-color:#906C00"/>
			<stop  offset="0.901" style="stop-color:#9D7500"/>
			<stop  offset="1" style="stop-color:#A17800"/>
		</linearGradient>
		<path style="fill:url(#SVGID_00000031187816051636313550000003086738316269666734_);stroke:#000000;stroke-miterlimit:10;" d="
			M59.9,75.5H40.1c-0.3,0-0.6-0.3-0.6-0.6v-2.4h21v2.4C60.5,75.2,60.2,75.5,59.9,75.5z"/>
		
			<linearGradient id="SVGID_00000111887469171285571000000001660353566859787932_" gradientUnits="userSpaceOnUse" x1="40" y1="28.5" x2="60" y2="28.5" gradientTransform="matrix(1 0 0 -1 0 100)">
			<stop  offset="0" style="stop-color:#543F00"/>
			<stop  offset="0.1314" style="stop-color:#503C00"/>
			<stop  offset="0.2674" style="stop-color:#433300"/>
			<stop  offset="0.4052" style="stop-color:#2F2300"/>
			<stop  offset="0.5" style="stop-color:#1C1500"/>
			<stop  offset="0.6584" style="stop-color:#332600"/>
			<stop  offset="0.8701" style="stop-color:#4B3800"/>
			<stop  offset="1" style="stop-color:#543F00"/>
		</linearGradient>
		
			<rect x="40" y="70.5" style="fill:url(#SVGID_00000111887469171285571000000001660353566859787932_);stroke:#000000;stroke-miterlimit:10;" width="20" height="2"/>
	</g>
</g>
<g id="Layer_3_copy">
	<g>
		
			<linearGradient id="SVGID_00000131339554092686207700000002959552147024208028_" gradientUnits="userSpaceOnUse" x1="59.8852" y1="52.5" x2="40.0688" y2="52.5" gradientTransform="matrix(0 1 1 0 0 0)">
			<stop  offset="0" style="stop-color:#A17800"/>
			<stop  offset="9.901221e-02" style="stop-color:#9D7500"/>
			<stop  offset="0.2016" style="stop-color:#906C00"/>
			<stop  offset="0.3059" style="stop-color:#7C5C00"/>
			<stop  offset="0.4106" style="stop-color:#5F4700"/>
			<stop  offset="0.5" style="stop-color:#403000"/>
			<stop  offset="0.5894" style="stop-color:#5F4700"/>
			<stop  offset="0.6941" style="stop-color:#7C5C00"/>
			<stop  offset="0.7984" style="stop-color:#906C00"/>
			<stop  offset="0.901" style="stop-color:#9D7500"/>
			<stop  offset="1" style="stop-color:#A17800"/>
		</linearGradient>
		
			<rect x="45" y="39.5" style="fill:url(#SVGID_00000131339554092686207700000002959552147024208028_);stroke:#000000;stroke-miterlimit:10;" width="15" height="21"/>
		
			<linearGradient id="SVGID_00000127014554692385299300000014790702622520407228_" gradientUnits="userSpaceOnUse" x1="39.5" y1="41.5" x2="60.5" y2="41.5" gradientTransform="matrix(0 1 1 0 0 0)">
			<stop  offset="0" style="stop-color:#A17800"/>
			<stop  offset="9.901221e-02" style="stop-color:#9D7500"/>
			<stop  offset="0.2016" style="stop-color:#906C00"/>
			<stop  offset="0.3059" style="stop-color:#7C5C00"/>
			<stop  offset="0.4106" style="stop-color:#5F4700"/>
			<stop  offset="0.5" style="stop-color:#403000"/>
			<stop  offset="0.5894" style="stop-color:#5F4700"/>
			<stop  offset="0.6941" style="stop-color:#7C5C00"/>
			<stop  offset="0.7984" style="stop-color:#906C00"/>
			<stop  offset="0.901" style="stop-color:#9D7500"/>
			<stop  offset="1" style="stop-color:#A17800"/>
		</linearGradient>
		<path style="fill:url(#SVGID_00000127014554692385299300000014790702622520407228_);stroke:#000000;stroke-miterlimit:10;" d="
			M40,59.9V40.1c0-0.3,0.3-0.6,0.6-0.6H43v21h-2.4C40.3,60.5,40,60.2,40,59.9z"/>
		
			<linearGradient id="SVGID_00000106828528027004046480000006678434736412006028_" gradientUnits="userSpaceOnUse" x1="40" y1="44" x2="60" y2="44" gradientTransform="matrix(0 1 1 0 0 0)">
			<stop  offset="0" style="stop-color:#543F00"/>
			<stop  offset="0.1314" style="stop-color:#503C00"/>
			<stop  offset="0.2674" style="stop-color:#433300"/>
			<stop  offset="0.4052" style="stop-color:#2F2300"/>
			<stop  offset="0.5" style="stop-color:#1C1500"/>
			<stop  offset="0.6584" style="stop-color:#332600"/>
			<stop  offset="0.8701" style="stop-color:#4B3800"/>
			<stop  offset="1" style="stop-color:#543F00"/>
		</linearGradient>
		
			<rect x="43" y="40" style="fill:url(#SVGID_00000106828528027004046480000006678434736412006028_);stroke:#000000;stroke-miterlimit:10;" width="2" height="20"/>
	</g>
</g>
</svg>
