<?xml version="1.0" encoding="utf-8"?>
<!-- Generator: Adobe Illustrator 28.3.0, SVG Export Plug-In . SVG Version: 6.00 Build 0)  -->
<svg version="1.1" xmlns="http://www.w3.org/2000/svg" xmlns:xlink="http://www.w3.org/1999/xlink" x="0px" y="0px"
	 viewBox="0 0 100 100" style="enable-background:new 0 0 100 100;" xml:space="preserve">
<style type="text/css">
	.st0{display:none;}
	.st1{display:inline;}
	.st2{fill:#A17800;}
	.st3{fill:#735600;}
	.st4{fill:none;stroke:#000000;stroke-width:1.1017;stroke-miterlimit:10;}
	.st5{fill:none;stroke:#B08D3B;stroke-width:3.6505;stroke-linecap:round;stroke-miterlimit:10;}
	.st6{fill:url(#SVGID_1_);stroke:#000000;stroke-miterlimit:10;}
	.st7{fill:url(#SVGID_00000049204331073907822630000002593712253457726894_);stroke:#000000;stroke-miterlimit:10;}
	.st8{fill:url(#SVGID_00000087403865670358995320000009530080886546622905_);stroke:#000000;stroke-miterlimit:10;}
	.st9{fill:url(#SVGID_00000135684357312220326270000012302134197770219426_);stroke:#000000;stroke-miterlimit:10;}
	.st10{fill:url(#SVGID_00000131345355317407757630000013643109463161380515_);stroke:#000000;stroke-miterlimit:10;}
	.st11{fill:url(#SVGID_00000018199248561810867710000007411248028236348322_);stroke:#000000;stroke-miterlimit:10;}
</style>
<g id="Layer_1">
</g>
<g id="Layer_2" class="st0">
	<g class="st1">
		<g>
			<path class="st2" d="M60,40.1v34c0,0.6-0.5,1.1-1.1,1.1H41.1c-0.6,0-1.1-0.5-1.1-1.1v-34c0-0.3,0.1-0.5,0.2-0.7L50,24.8l9.8,14.7
				C59.9,39.6,60,39.9,60,40.1z"/>
		</g>
		<g>
			<polygon class="st3" points="50,26.8 59,39.8 41,39.8 			"/>
		</g>
		<g>
			<path d="M50,26.6L58.9,40c0,0.1,0.1,0.1,0.1,0.2v34c0,0.1,0,0.1-0.1,0.1H41.1c-0.1,0-0.1,0-0.1-0.1v-34c0-0.1,0-0.1,0.1-0.2
				L50,26.6 M50,24.8l-9.8,14.7c-0.1,0.2-0.2,0.5-0.2,0.7v34c0,0.6,0.5,1.1,1.1,1.1h17.8c0.6,0,1.1-0.5,1.1-1.1v-34
				c0-0.3-0.1-0.5-0.2-0.7L50,24.8L50,24.8z"/>
		</g>
		<g>
			<line class="st4" x1="41" y1="40.2" x2="59" y2="40.2"/>
		</g>
		<path class="st5" d="M45.9,47.6v22c0,0.2-0.2,0.4-0.4,0.4l0,0c-0.2,0-0.4-0.2-0.4-0.4v-22c0-0.2,0.2-0.4,0.4-0.4l0,0
			C45.7,47.1,45.9,47.3,45.9,47.6z"/>
	</g>
</g>
<g id="Source" class="st0">
	<g class="st1">
		<linearGradient id="SVGID_1_" gradientUnits="userSpaceOnUse" x1="59.8852" y1="63" x2="40.0688" y2="63">
			<stop  offset="0" style="stop-color:#A17800"/>
			<stop  offset="9.901221e-02" style="stop-color:#9D7500"/>
			<stop  offset="0.2016" style="stop-color:#906C00"/>
			<stop  offset="0.3059" style="stop-color:#7C5C00"/>
			<stop  offset="0.4106" style="stop-color:#5F4700"/>
			<stop  offset="0.5" style="stop-color:#403000"/>
			<stop  offset="0.5894" style="stop-color:#5F4700"/>
			<stop  offset="0.6941" style="stop-color:#7C5C00"/>
			<stop  offset="0.7984" style="stop-color:#906C00"/>
			<stop  offset="0.901" style="stop-color:#9D7500"/>
			<stop  offset="1" style="stop-color:#A17800"/>
		</linearGradient>
		<rect x="39.5" y="55.5" class="st6" width="21" height="15"/>
		
			<linearGradient id="SVGID_00000069357845391028919290000017595359337391129732_" gradientUnits="userSpaceOnUse" x1="39.5" y1="74" x2="60.5" y2="74">
			<stop  offset="0" style="stop-color:#A17800"/>
			<stop  offset="9.901221e-02" style="stop-color:#9D7500"/>
			<stop  offset="0.2016" style="stop-color:#906C00"/>
			<stop  offset="0.3059" style="stop-color:#7C5C00"/>
			<stop  offset="0.4106" style="stop-color:#5F4700"/>
			<stop  offset="0.5" style="stop-color:#403000"/>
			<stop  offset="0.5894" style="stop-color:#5F4700"/>
			<stop  offset="0.6941" style="stop-color:#7C5C00"/>
			<stop  offset="0.7984" style="stop-color:#906C00"/>
			<stop  offset="0.901" style="stop-color:#9D7500"/>
			<stop  offset="1" style="stop-color:#A17800"/>
		</linearGradient>
		<path style="fill:url(#SVGID_00000069357845391028919290000017595359337391129732_);stroke:#000000;stroke-miterlimit:10;" d="
			M59.9,75.5H40.1c-0.3,0-0.6-0.3-0.6-0.6v-2.4h21v2.4C60.5,75.2,60.2,75.5,59.9,75.5z"/>
		
			<linearGradient id="SVGID_00000070095525391541599800000012254038378034784946_" gradientUnits="userSpaceOnUse" x1="40" y1="71.5" x2="60" y2="71.5">
			<stop  offset="0" style="stop-color:#543F00"/>
			<stop  offset="0.1314" style="stop-color:#503C00"/>
			<stop  offset="0.2674" style="stop-color:#433300"/>
			<stop  offset="0.4052" style="stop-color:#2F2300"/>
			<stop  offset="0.5" style="stop-color:#1C1500"/>
			<stop  offset="0.6584" style="stop-color:#332600"/>
			<stop  offset="0.8701" style="stop-color:#4B3800"/>
			<stop  offset="1" style="stop-color:#543F00"/>
		</linearGradient>
		
			<rect x="40" y="70.5" style="fill:url(#SVGID_00000070095525391541599800000012254038378034784946_);stroke:#000000;stroke-miterlimit:10;" width="20" height="2"/>
	</g>
</g>
<g id="Layer_3_copy">
	<g>
		
			<linearGradient id="SVGID_00000156584996838636521070000010988297229806856378_" gradientUnits="userSpaceOnUse" x1="59.8852" y1="47.5" x2="40.0688" y2="47.5">
			<stop  offset="0" style="stop-color:#A17800"/>
			<stop  offset="9.901221e-02" style="stop-color:#9D7500"/>
			<stop  offset="0.2016" style="stop-color:#906C00"/>
			<stop  offset="0.3059" style="stop-color:#7C5C00"/>
			<stop  offset="0.4106" style="stop-color:#5F4700"/>
			<stop  offset="0.5" style="stop-color:#403000"/>
			<stop  offset="0.5894" style="stop-color:#5F4700"/>
			<stop  offset="0.6941" style="stop-color:#7C5C00"/>
			<stop  offset="0.7984" style="stop-color:#906C00"/>
			<stop  offset="0.901" style="stop-color:#9D7500"/>
			<stop  offset="1" style="stop-color:#A17800"/>
		</linearGradient>
		
			<rect x="39.5" y="40" style="fill:url(#SVGID_00000156584996838636521070000010988297229806856378_);stroke:#000000;stroke-miterlimit:10;" width="21" height="15"/>
		
			<linearGradient id="SVGID_00000170971610288006571050000004789095777709490597_" gradientUnits="userSpaceOnUse" x1="39.5" y1="58.5" x2="60.5" y2="58.5">
			<stop  offset="0" style="stop-color:#A17800"/>
			<stop  offset="9.901221e-02" style="stop-color:#9D7500"/>
			<stop  offset="0.2016" style="stop-color:#906C00"/>
			<stop  offset="0.3059" style="stop-color:#7C5C00"/>
			<stop  offset="0.4106" style="stop-color:#5F4700"/>
			<stop  offset="0.5" style="stop-color:#403000"/>
			<stop  offset="0.5894" style="stop-color:#5F4700"/>
			<stop  offset="0.6941" style="stop-color:#7C5C00"/>
			<stop  offset="0.7984" style="stop-color:#906C00"/>
			<stop  offset="0.901" style="stop-color:#9D7500"/>
			<stop  offset="1" style="stop-color:#A17800"/>
		</linearGradient>
		<path style="fill:url(#SVGID_00000170971610288006571050000004789095777709490597_);stroke:#000000;stroke-miterlimit:10;" d="
			M59.9,60H40.1c-0.3,0-0.6-0.3-0.6-0.6V57h21v2.4C60.5,59.7,60.2,60,59.9,60z"/>
		
			<linearGradient id="SVGID_00000078756518652135320990000011901471286950092203_" gradientUnits="userSpaceOnUse" x1="40" y1="56" x2="60" y2="56">
			<stop  offset="0" style="stop-color:#543F00"/>
			<stop  offset="0.1314" style="stop-color:#503C00"/>
			<stop  offset="0.2674" style="stop-color:#433300"/>
			<stop  offset="0.4052" style="stop-color:#2F2300"/>
			<stop  offset="0.5" style="stop-color:#1C1500"/>
			<stop  offset="0.6584" style="stop-color:#332600"/>
			<stop  offset="0.8701" style="stop-color:#4B3800"/>
			<stop  offset="1" style="stop-color:#543F00"/>
		</linearGradient>
		
			<rect x="40" y="55" style="fill:url(#SVGID_00000078756518652135320990000011901471286950092203_);stroke:#000000;stroke-miterlimit:10;" width="20" height="2"/>
	</g>
</g>
</svg>
