<?xml version="1.0" encoding="utf-8"?>
<!-- Generator: Adobe Illustrator 28.3.0, SVG Export Plug-In . SVG Version: 6.00 Build 0)  -->
<svg version="1.1" id="Layer_1" xmlns="http://www.w3.org/2000/svg" xmlns:xlink="http://www.w3.org/1999/xlink" x="0px" y="0px"
	 viewBox="0 0 100 100" style="enable-background:new 0 0 100 100;" xml:space="preserve">
<style type="text/css">
	.st0{display:none;}
	.st1{display:inline;}
	.st2{fill:#808080;stroke:#6B6B6B;stroke-width:0.4955;stroke-miterlimit:10;}
	.st3{fill:#424242;stroke:#2E2E2E;stroke-width:0.4273;stroke-miterlimit:10;}
	.st4{fill:#666666;stroke:#2E2E2E;stroke-width:0.5195;stroke-miterlimit:10;}
	.st5{fill:#282828;}
	.st6{fill:#045100;}
	.st7{fill:#003E1F;}
	.st8{fill:#545454;}
	.st9{fill:#424242;}
	.st10{clip-path:url(#SVGID_00000111875278988618442810000003006271550463672717_);}
	.st11{stroke:#000000;stroke-width:0.6667;stroke-miterlimit:10;}
</style>
<g id="Source" class="st0">
	<g class="st1">
		<g>
			<rect x="45.5" y="34.2" class="st2" width="39.3" height="3"/>
			<rect x="84.8" y="33.2" class="st3" width="2.2" height="5"/>
		</g>
		<circle class="st4" cx="44.5" cy="35.5" r="5"/>
	</g>
</g>
<g id="Main">
	<g>
		<g>
			<rect x="32.3" y="48.8" class="st2" width="39.3" height="3"/>
			<rect x="71.6" y="47.8" class="st3" width="2.2" height="5"/>
		</g>
		<circle class="st4" cx="31.3" cy="50" r="5"/>
	</g>
</g>
<g id="Ref_Tank" class="st0">
	<g class="st1">
		<polygon class="st5" points="87.4,64.8 12.4,64.8 7.8,55.8 92,55.8 		"/>
		<g>
			<path class="st6" d="M26,41.4v-9c0-1.5,1.2-2.7,2.7-2.7h15.4c1.5,0,2.7,1.2,2.7,2.7v9H26z"/>
			<path class="st7" d="M44.1,30.3c1.2,0,2.1,1,2.1,2.1v8.5H26.6v-8.5c0-1.2,1-2.1,2.1-2.1L44.1,30.3 M44.1,29.2H28.8
				c-1.8,0-3.3,1.5-3.3,3.3V42h21.9v-9.6C47.4,30.7,46,29.2,44.1,29.2L44.1,29.2z"/>
		</g>
		<g>
			<polygon class="st6" points="8.8,55.3 19.9,40.9 79.9,40.9 91,55.3 			"/>
			<path class="st7" d="M79.8,41.4L90,54.8H10l10.2-13.4H79.8 M80.2,40.3H19.6L7.8,55.8h84.3L80.2,40.3L80.2,40.3z"/>
		</g>
		<g>
			<g>
				<path class="st8" d="M18.9,69.8c-3,0-5.5-2.5-5.5-5.5s2.5-5.5,5.5-5.5h62c3,0,5.5,2.5,5.5,5.5s-2.5,5.5-5.5,5.5H18.9z"/>
				<path class="st9" d="M80.9,59.8c2.5,0,4.5,2,4.5,4.5c0,2.5-2,4.5-4.5,4.5h-62c-2.5,0-4.5-2-4.5-4.5s2-4.5,4.5-4.5L80.9,59.8
					 M80.9,57.8h-62c-3.6,0-6.5,2.9-6.5,6.5l0,0c0,3.6,2.9,6.5,6.5,6.5h62c3.6,0,6.5-2.9,6.5-6.5l0,0C87.4,60.7,84.5,57.8,80.9,57.8
					L80.9,57.8z"/>
			</g>
			<g>
				<g>
					<g>
						<defs>
							<rect id="SVGID_1_" x="14.6" y="60" width="71.3" height="10.1"/>
						</defs>
						<clipPath id="SVGID_00000129199459648725017840000016415791040775736978_">
							<use xlink:href="#SVGID_1_"  style="overflow:visible;"/>
						</clipPath>
						<g style="clip-path:url(#SVGID_00000129199459648725017840000016415791040775736978_);">
							<g>
								<circle class="st11" cx="18.9" cy="64.3" r="4"/>
							</g>
							<g>
								<circle class="st11" cx="39.6" cy="64.3" r="4"/>
							</g>
							<g>
								<circle class="st11" cx="60.2" cy="64.3" r="4"/>
							</g>
							<g>
								<circle class="st11" cx="80.9" cy="64.3" r="4"/>
							</g>
						</g>
					</g>
				</g>
			</g>
		</g>
	</g>
</g>
</svg>
